<svg xmlns="http://www.w3.org/2000/svg" width="256" height="256"><path fill="#1d2327" d="M0 0h256v256H0z"/><path fill="#090b0c" d="M61.8 197.1c.1.2.3.3.4.5h.1c.1.2.3.3.4.5h.1c.1.2.3.3.4.5h.1c.1.2.3.3.4.5h.1c.1.2.3.3.4.5h.1c.1.2.3.3.4.5h.1c.1.2.3.3.4.5h.1c.1.2.3.3.4.5h.1c.1.2.3.3.4.5h.1c.1.2.3.3.4.5h.1c.1.2.3.3.4.5h.1c.1.2.3.3.4.5h.1c.1.2.3.3.4.5h.1c.1.2.3.3.4.5h.1c.1.2.3.3.4.5h.1c.1.2.3.3.4.5h.1c.1.2.3.3.4.5h.1c.1.2.3.3.4.5h.1c.1.2.3.3.4.5h.1c.1.2.3.3.4.5h.1c.1.2.3.3.4.5h.1c.1.2.3.3.4.5h.1c.1.2.3.3.4.5h.1c.1.2.3.3.4.5h.1c.1.2.3.3.4.5h.1c.1.2.3.3.4.5h.1c.1.2.3.3.4.5h.1c.1.2.3.3.4.5h.1c.1.2.3.3.4.5h.1c.1.2.3.3.4.5h.1c.1.2.3.3.4.5h.1c.1.2.3.3.4.5h.1c.1.2.3.3.4.5h.1c.1.2.3.3.4.5h.1c.1.2.3.3.4.5h.1c.1.2.3.3.4.5h.1c.1.2.3.3.4.5h.1c.1.2.3.3.4.5h.1c.1.2.3.3.4.5h.1c.1.2.3.3.4.5h.1c.1.2.3.3.4.5h.1c.1.2.3.3.4.5h.1c.1.2.3.3.4.5h.1c.1.2.3.3.4.5h.1c.1.2.3.3.4.5h.1c.1.2.3.3.4.5h.1c.1.2.3.3.4.5h.1c.1.2.3.3.4.5h.1c.1.2.3.3.4.5h.1c.1.2.3.3.4.5h.1c.1.2.3.3.4.5h.1c.1.2.3.3.4.5h.1c.1.2.3.3.4.5h.1c.1.2.3.3.4.5h.1c.1.2.3.3.4.5h.1c.1.2.3.3.4.5h.1c.1.2.3.3.4.5h.1c.1.2.3.3.4.5h.1c.1.2.3.3.4.5h.1c.1.2.3.3.4.5h.1c.1.2.3.3.4.5h.1c.1.2.3.3.4.5h.1c.1.2.3.3.4.5h.1c.1.2.3.3.4.5h.1c.1.2.3.3.4.5h.1c.1.2.3.3.4.5h.1c.1.2.3.3.4.5h.1c.1.2.3.3.4.5h.1c.1.2.3.3.4.5h.1c.1.2.3.3.4.5h.1c.1.2.3.3.4.5h.1c.1.2.3.3.4.5h.1c.1.2.3.3.4.5h.1c.1.2.3.3.4.5h.1c.1.2.3.3.4.5h.1c.1.2.3.3.4.5h.1c.1.2.3.3.4.5h.1c.1.2.3.3.4.5h.1c.1.2.3.3.4.5h.1c.1.2.3.3.4.5h.1c.1.2.3.3.4.5h.1c.1.2.3.3.4.5h.1c.1.2.3.3.4.5h.1c.1.2.3.3.4.5h.1c.1.2.3.3.4.5h.1c.1.2.3.3.4.5h.1c.1.2.3.3.4.5h.1c.1.2.3.3.4.5h.1c.1.2.3.3.4.5h.1c.1.2.3.3.4.5h.1c.1.2.3.3.4.5h.1c.1.2.3.3.4.5h.1c.1.2.3.3.4.5h.1c.1.2.3.3.4.5h.1c.1.2.3.3.4.5h.1c.1.2.3.3.4.5h.1c.1.2.3.3.4.5h.1c.1.2.3.3.4.5h.1c.1.2.3.3.4.5h.1c.1.2.3.3.4.5h.1c.1.2.3.3.4.5h.1c.1.2.3.3.4.5h.1c.1.2.3.3.4.5h.1c.1.2.3.3.4.5h.1c.1.2.3.3.4.5h.1c.1.2.3.3.4.5h.1c.1.2.3.3.4.5h.1c.1.2.3.3.4.5h.1c.1.2.3.3.4.5h.1c.1.2.3.3.4.5h.1c.1.2.3.3.4.5h.1c.1.2.3.3.4.5h.1c.1.2.3.3.4.5h.1c.1.2.3.3.4.5h.1c.1.2.3.3.4.5h.1c.1.2.3.3.4.5h.1c.1.2.3.3.4.5h.1c.1.1.2.3.3.4H256V151.7l-.1-.1-.5-.5-.5-.5-.5-.5-.5-.5-.5-.5-.5-.5-.5-.5-.5-.5-.5-.5-.5-.5-.5-.5-.5-.5-.5-.5-.5-.5-.5-.5-.5-.5-.5-.5-.5-.5-.5-.5-.5-.5-.5-.5-.5-.5-.5-.5-.5-.5-.5-.5-.5-.5-.5-.5-.5-.5-.5-.5-.5-.5-.5-.5-.5-.5-.5-.5-.5-.5-.5-.5-.5-.5-.5-.5-.5-.5-.5-.5-.5-.5-.5-.5-.5-.5-.5-.5-.5-.5-.5-.5-.5-.5-.5-.5-.5-.5-.5-.5-.5-.5-.5-.5-.5-.5-.5-.5-.5-.5-.5-.5-.5-.5-.5-.5-.5-.5-.5-.5-.5-.5-.5-.5-.5-.5-.5-.5-.5-.5-.5-.5-.5-.5-.5-.5-.5-.5-.5-.5-.5-.5-.5-.5-.5-.5-.5-.5-.5-.5-.5-.5-.5-.5-.5-.5-.5-.5-.5-.5-.5-.5-.5-.5-.5-.5-.5-.5-.5-.5-.5-.5-.5-.5-.5-.5-.5-.5-.5-.5-.5-.5-.5-.5-.5-.5-.5-.5-.5-.5-.5-.5-.5-.5-.5-.5-.5-.5-.5-.5-.5-.5-.5-.5-.5-.5-.5-.5-.5-.5-.5-.5-.5-.5-.5-.5-.5-.5-.5-.5-.5-.5-.5-.5-.5-.5-.5-.5-.5-.5-.5-.5-.5-.5-.5-.5-.5-.5-.5-.5-.5-.5-.5-.5-.5-.5-.5-.5-.5-.5-.5-.5-.5-.5-.5-.5-.5-.5-.5-.5-.5-.5-.5-.5-.5-.5-.5-.5-.5-.5-.5-.5C173 68.6 151.6 58.9 128 58.9c-47 0-85 38-85 85 0 20.1 7 38.6 18.7 53.1h.1z"/><path fill="#9ca2a7" d="M61.7 197.1h132.6c11.7-14.6 18.7-33 18.7-53.1 0-47-38-85-85-85s-85 38-85 85c0 20 7 38.5 18.7 53.1zM128 69.6c5.8 0 10.6 4.8 10.6 10.6s-4.8 10.6-10.6 10.6-10.6-4.8-10.6-10.6 4.8-10.6 10.6-10.6zM85.5 90.8c5.8 0 10.6 4.8 10.6 10.6S91.3 112 85.5 112s-10.6-4.8-10.6-10.6 4.8-10.6 10.6-10.6zm85 0c5.8 0 10.6 4.8 10.6 10.6s-4.8 10.6-10.6 10.6-10.6-4.8-10.6-10.6 4.8-10.6 10.6-10.6zm-57.1 59 35.8-48.3v63.8c0 11.7-9.6 21.2-21.2 21.2s-21.2-9.6-21.2-21.2c0-6.2 2.5-11.6 6.6-15.5zm-49.2-16.5c5.8 0 10.6 4.8 10.6 10.6s-4.8 10.6-10.6 10.6-10.6-4.8-10.6-10.6 4.8-10.6 10.6-10.6zm127.6 0c5.8 0 10.6 4.8 10.6 10.6s-4.8 10.6-10.6 10.6-10.6-4.8-10.6-10.6 4.7-10.6 10.6-10.6zm-53.2 31.9c0-5.8-4.8-10.6-10.6-10.6s-10.6 4.8-10.6 10.6 4.8 10.6 10.6 10.6 10.6-4.8 10.6-10.6z"/><path fill="#b4bbbf" d="M179.8 76.6C165.5 65.6 147.5 59 128 59c-47 0-85 38-85 85 0 19.5 6.6 37.4 17.7 51.8 28-55.5 66.8-96.4 119.1-119.2zm-51.8-7c5.8 0 10.6 4.8 10.6 10.6s-4.8 10.6-10.6 10.6-10.6-4.8-10.6-10.6 4.8-10.6 10.6-10.6zM85.5 90.8c5.8 0 10.6 4.8 10.6 10.6S91.3 112 85.5 112s-10.6-4.8-10.6-10.6 4.8-10.6 10.6-10.6zm-21.3 42.5c5.8 0 10.6 4.8 10.6 10.6s-4.8 10.6-10.6 10.6-10.6-4.8-10.6-10.6 4.8-10.6 10.6-10.6z"/></svg>